<svg width="170" height="50" viewBox="0 0 198 66" fill="none" xmlns="http://www.w3.org/2000/svg">
<path fill-rule="evenodd" clip-rule="evenodd" d="M85.3555 16.5877L89.3196 0H140.888L136.917 16.5877H120.275L111.269 52.5455H93.0313L102.017 16.5877H85.3555ZM15.8416 0.98417L0 65.9842H17.4162L27.7432 24.0308V65.9842H41.1922L61.0079 24.0308L51.5056 65.9842H68.1652L84 0.98417H57.845L41.1922 38.8466V0.98417H15.8416ZM91.4314 56.9842L89 65.9842H107.576L110 56.9842H91.4314ZM130 65.9842L145.99 0.98417H164.396L172.398 35.5612L181.198 0.98417H198L181.989 65.9842H164.396L155.602 30.6086L146.802 65.9842H130Z" fill="white"/>
</svg>
