<svg
    xmlns="http://www.w3.org/2000/svg"
    width="53"
    height="53"
    viewBox="0 0 53 53">
    <defs>
        <linearGradient id="grad1" x1="14.875" y1="13.3574" x2="38.875" y2="38.3574" gradientUnits="userSpaceOnUse">
            <stop offset="0" style="stop-color:#FFCC00; stop-opacity:1" />
            <stop offset="1" style="stop-color:#F66C37; stop-opacity:1" />
        </linearGradient>
    </defs>
    <path
        d="M23.3215 36.4642V32.6309C23.3215 31.6557 24.1164 30.8635 25.1013 30.857H28.7089C29.6984 30.857 30.5006 31.6511 30.5006 32.6309V36.4761C30.5004 37.304 31.1679 37.9806 32.0037 38H34.4089C36.8064 38 38.75 36.0759 38.75 33.7022V22.7973C38.7372 21.8635 38.2944 20.9867 37.5475 20.4163L29.3221 13.8566C27.8811 12.7145 25.8328 12.7145 24.3918 13.8566L16.2025 20.4282C15.4528 20.9963 15.0092 21.8746 15 22.8092V33.7022C15 36.0759 16.9436 38 19.3411 38H21.7462C22.6029 38 23.2975 37.3124 23.2975 36.4642"
        fill="none"
        stroke="url(#grad1)"
        stroke-width="2.5"
        stroke-linecap="round"
        stroke-linejoin="round" />
</svg>