<svg id="vector" xmlns="http://www.w3.org/2000/svg" width="100" height="102" viewBox="0 0 100 102"><defs><linearGradient gradientUnits="userSpaceOnUse" x2="85.02" y2="66.09" x1="19.2" y1="30.51" id="gradient_0"><stop stop-color="#FFCC00FF" offset="0.01"/><stop stop-color="#FFCC00B2" offset="1"/></linearGradient></defs><path fill="url(#gradient_0)" d="M29,10L71,10A15,15 0,0 1,86 25L86,69A15,15 0,0 1,71 84L29,84A15,15 0,0 1,14 69L14,25A15,15 0,0 1,29 10z" id="path_0"/><path fill="#00000000" d="M29,11L71,11A14,14 0,0 1,85 25L85,69A14,14 0,0 1,71 83L29,83A14,14 0,0 1,15 69L15,25A14,14 0,0 1,29 11z" stroke="#F7F7F7" stroke-width="2" id="path_1"/><path fill="#ffffff" d="M44.61,49.18C46.94,49.18 48.82,51.06 48.82,53.39V61.8C48.82,64.12 46.94,66 44.61,66H36.2C33.88,66 32,64.12 32,61.8V53.39C32,51.06 33.88,49.18 36.2,49.18H44.61ZM44.61,52.55H36.2C35.74,52.55 35.36,52.92 35.36,53.39V61.8C35.36,62.26 35.74,62.64 36.2,62.64H44.61C45.08,62.64 45.45,62.26 45.45,61.8V53.39C45.45,52.92 45.08,52.55 44.61,52.55ZM43.35,54.65V60.53H37.47V54.65H43.35ZM44.61,29C46.94,29 48.82,30.88 48.82,33.2V41.61C48.82,43.94 46.94,45.82 44.61,45.82H36.2C33.88,45.82 32,43.94 32,41.61V33.2C32,30.88 33.88,29 36.2,29H44.61ZM64.8,29C67.12,29 69,30.88 69,33.2V41.61C69,43.94 67.12,45.82 64.8,45.82H56.39C54.06,45.82 52.18,43.94 52.18,41.61V33.2C52.18,30.88 54.06,29 56.39,29H64.8ZM44.61,32.36H36.2C35.74,32.36 35.36,32.74 35.36,33.2V41.61C35.36,42.08 35.74,42.45 36.2,42.45H44.61C45.08,42.45 45.45,42.08 45.45,41.61V33.2C45.45,32.74 45.08,32.36 44.61,32.36ZM64.8,32.36H56.39C55.92,32.36 55.55,32.74 55.55,33.2V41.61C55.55,42.08 55.92,42.45 56.39,42.45H64.8C65.26,42.45 65.64,42.08 65.64,41.61V33.2C65.64,32.74 65.26,32.36 64.8,32.36ZM63.53,34.47V40.35H57.65V34.47H63.53ZM43.35,34.47V40.35H37.47V34.47H43.35Z" id="path_2"/><path fill="#00000000" d="M53.14,64.96L60.65,57.45L68.16,64.96" stroke="#ffffff" stroke-linecap="round" stroke-width="3" id="path_3"/><path fill="#00000000" d="M53.14,58.06L60.65,50.54L68.16,58.06" stroke="#ffffff" stroke-linecap="round" stroke-width="3" id="path_4"/></svg>