<svg xmlns="http://www.w3.org/2000/svg" width="53" height="53" viewBox="0 0 53 53">
    <defs>
        <linearGradient id="gradient" x1="11" y1="12" x2="40" y2="40" gradientUnits="userSpaceOnUse">
            <stop offset="0" stop-color="#FFCC01"/>
            <stop offset="1" stop-color="#F77831"/>
        </linearGradient>
    </defs>
    <path d="M25.5 25.5266C23.5062 25.5266 21.875 24.8953 20.6063 23.6329C19.3375 22.3704 18.7031 20.7472 18.7031 18.7633C18.7031 16.7794 19.3375 15.1562 20.6063 13.8937C21.875 12.6312 23.5062 12 25.5 12C27.4938 12 29.125 12.6312 30.3937 13.8937C31.6625 15.1562 32.2969 16.7794 32.2969 18.7633C32.2969 20.7472 31.6625 22.3704 30.3937 23.6329C29.125 24.8953 27.4938 25.5266 25.5 25.5266ZM15.2383 40C12.8976 40 11 38.1024 11 35.7617V35.7617C11 34.6194 11.287 33.6425 11.8609 32.8309C12.4349 32.0193 13.175 31.4031 14.0812 30.9823C16.1052 30.0805 18.0461 29.4042 19.9039 28.9533C21.7617 28.5024 23.6271 28.277 25.5 28.277C27.3729 28.277 29.2307 28.5099 31.0734 28.9758C32.9161 29.4418 34.8495 30.1106 36.8734 30.9823C37.8099 31.4031 38.5651 32.0193 39.1391 32.8309C39.713 33.6425 40 34.6194 40 35.7617V35.7617C40 38.1024 38.1024 40 35.7617 40H15.2383ZM13.7188 35.7617C13.7188 36.6083 14.4051 37.2947 15.2518 37.2947H35.7482C36.5949 37.2947 37.2812 36.6083 37.2812 35.7617V35.7617C37.2812 35.2807 37.1378 34.8223 36.8508 34.3865C36.5638 33.9506 36.2089 33.6275 35.7859 33.4171C33.8526 32.4852 32.0854 31.8465 30.4844 31.5008C28.8833 31.1551 27.2219 30.9823 25.5 30.9823C23.7781 30.9823 22.1016 31.1551 20.4703 31.5008C18.8391 31.8465 17.0719 32.4852 15.1688 33.4171C14.7458 33.6275 14.3984 33.9506 14.1266 34.3865C13.8547 34.8223 13.7188 35.2807 13.7188 35.7617V35.7617ZM25.5 22.8213C26.6781 22.8213 27.6523 22.438 28.4227 21.6715C29.193 20.905 29.5781 19.9356 29.5781 18.7633C29.5781 17.591 29.193 16.6216 28.4227 15.8551C27.6523 15.0886 26.6781 14.7053 25.5 14.7053C24.3219 14.7053 23.3477 15.0886 22.5773 15.8551C21.807 16.6216 21.4219 17.591 21.4219 18.7633C21.4219 19.9356 21.807 20.905 22.5773 21.6715C23.3477 22.438 24.3219 22.8213 25.5 22.8213Z" fill="url(#gradient)"/>
</svg>