<svg xmlns="http://www.w3.org/2000/svg" width="53" height="53" viewBox="0 0 53 53">
    <defs>
        <linearGradient id="gradient" x1="12.1426" y1="12.1426" x2="42.6426" y2="42.1426" gradientUnits="userSpaceOnUse">
            <stop offset="0" stop-color="#FFCC00"/>
            <stop offset="1" stop-color="#F66C37"/>
        </linearGradient>
    </defs>
    <path d="M31.7157 27.4282V31.7139H36.0002L35.9991 35.9979L40.2859 35.9989V40.2846H36.0002V35.9997L31.7157 35.9989V40.2846H27.43V35.9989L31.7145 35.9997V31.7139H27.43V27.4282H31.7157ZM21.6422 27.4286C23.4174 27.4286 24.8565 28.8677 24.8565 30.6429V37.0707C24.8565 38.8459 23.4174 40.285 21.6422 40.285H15.2143C13.4391 40.285 12 38.8459 12 37.0707V30.6429C12 28.8677 13.4391 27.4286 15.2143 27.4286H21.6422ZM21.6422 30H15.2143C14.8592 30 14.5714 30.2878 14.5714 30.6429V37.0707C14.5714 37.4258 14.8592 37.7136 15.2143 37.7136H21.6422C21.9972 37.7136 22.285 37.4258 22.285 37.0707V30.6429C22.285 30.2878 21.9972 30 21.6422 30ZM20.6782 31.6068V36.1068H16.1782V31.6068H20.6782ZM40.2859 27.4282V31.7139H36.0002V27.4282H40.2859ZM21.6422 12C23.4174 12 24.8565 13.4391 24.8565 15.2143V21.6422C24.8565 23.4174 23.4174 24.8565 21.6422 24.8565H15.2143C13.4391 24.8565 12 23.4174 12 21.6422V15.2143C12 13.4391 13.4391 12 15.2143 12H21.6422ZM37.0707 12C38.8459 12 40.285 13.4391 40.285 15.2143V21.6422C40.285 23.4174 38.8459 24.8565 37.0707 24.8565H30.6429C28.8677 24.8565 27.4286 23.4174 27.4286 21.6422V15.2143C27.4286 13.4391 28.8677 12 30.6429 12H37.0707ZM21.6422 14.5714H15.2143C14.8592 14.5714 14.5714 14.8592 14.5714 15.2143V21.6422C14.5714 21.9972 14.8592 22.285 15.2143 22.285H21.6422C21.9972 22.285 22.285 21.9972 22.285 21.6422V15.2143C22.285 14.8592 21.9972 14.5714 21.6422 14.5714ZM37.0707 14.5714H30.6429C30.2878 14.5714 30 14.8592 30 15.2143V21.6422C30 21.9972 30.2878 22.285 30.6429 22.285H37.0707C37.4258 22.285 37.7136 21.9972 37.7136 21.6422V15.2143C37.7136 14.8592 37.4258 14.5714 37.0707 14.5714ZM36.1068 16.1782V20.6782H31.6068V16.1782H36.1068ZM20.6748 16.1817V20.6748H16.1817V16.1817H20.6748Z" fill="url(#gradient)"/>
</svg>