<svg id="vector" xmlns="http://www.w3.org/2000/svg" width="100" height="102" viewBox="0 0 100 102"><defs><linearGradient gradientUnits="userSpaceOnUse" x2="85.02" y2="66.09" x1="19.2" y1="30.51" id="gradient_0"><stop stop-color="#00678FFF" offset="0.01"/><stop stop-color="#007CACB2" offset="1"/></linearGradient><clipPath id="clip_path_1"><path d="M50.47,47.41h19v19h-19zM67.6,55.13L66.41,54.92C66.28,54.52 66.12,54.13 65.93,53.77L66.63,52.78C66.93,52.36 66.88,51.79 66.52,51.43L65.46,50.37C65.26,50.17 65,50.06 64.72,50.06C64.5,50.06 64.29,50.13 64.11,50.26L63.12,50.96C62.74,50.76 62.34,50.59 61.92,50.47L61.72,49.29C61.64,48.78 61.2,48.41 60.69,48.41H59.19C58.68,48.41 58.24,48.78 58.15,49.29L57.95,50.49C57.55,50.62 57.16,50.78 56.79,50.98L55.82,50.28C55.64,50.15 55.43,50.08 55.21,50.08C54.93,50.08 54.66,50.19 54.46,50.39L53.4,51.45C53.04,51.81 52.99,52.38 53.29,52.8L54,53.8C53.8,54.17 53.65,54.56 53.53,54.96L52.35,55.16C51.84,55.25 51.47,55.68 51.47,56.2V57.69C51.47,58.21 51.84,58.64 52.35,58.73L53.55,58.94C53.68,59.33 53.84,59.72 54.04,60.09L53.34,61.06C53.04,61.48 53.09,62.05 53.45,62.42L54.51,63.47C54.71,63.67 54.97,63.78 55.26,63.78C55.48,63.78 55.69,63.72 55.86,63.59L56.86,62.88C57.22,63.07 57.6,63.22 57.98,63.34L58.18,64.53C58.27,65.04 58.7,65.41 59.22,65.41H60.72C61.23,65.41 61.67,65.04 61.75,64.53L61.96,63.34C62.36,63.22 62.74,63.06 63.11,62.86L64.1,63.56C64.28,63.69 64.49,63.76 64.71,63.76C64.99,63.76 65.25,63.65 65.45,63.45L66.51,62.39C66.87,62.03 66.92,61.46 66.62,61.04L65.92,60.05C66.12,59.68 66.28,59.29 66.4,58.89L67.59,58.69C68.1,58.61 68.47,58.17 68.47,57.66V56.16C68.48,55.65 68.11,55.21 67.6,55.13ZM67.52,57.66C67.52,57.7 67.49,57.74 67.44,57.75L65.95,58C65.76,58.03 65.61,58.17 65.56,58.35C65.43,58.87 65.22,59.37 64.95,59.84C64.85,60 64.86,60.2 64.97,60.36L65.85,61.6C65.87,61.63 65.87,61.68 65.83,61.72L64.78,62.78C64.75,62.8 64.73,62.8 64.71,62.8C64.69,62.8 64.67,62.8 64.66,62.79L63.42,61.91C63.27,61.8 63.06,61.79 62.9,61.89C62.44,62.16 61.94,62.37 61.41,62.51C61.23,62.55 61.09,62.7 61.06,62.89L60.81,64.38C60.8,64.43 60.76,64.46 60.72,64.46H59.22C59.18,64.46 59.14,64.43 59.13,64.38L58.88,62.89C58.85,62.7 58.71,62.55 58.53,62.51C58.02,62.37 57.53,62.17 57.07,61.91C57,61.87 56.91,61.84 56.83,61.84C56.74,61.84 56.64,61.87 56.56,61.93L55.31,62.82C55.29,62.83 55.28,62.84 55.26,62.84C55.24,62.84 55.22,62.83 55.19,62.81L54.13,61.75C54.1,61.72 54.1,61.67 54.12,61.63L55,60.4C55.11,60.25 55.11,60.04 55.02,59.88C54.74,59.42 54.53,58.91 54.39,58.39C54.34,58.21 54.19,58.07 54.01,58.04L52.51,57.79C52.46,57.78 52.43,57.74 52.43,57.69V56.2C52.43,56.15 52.46,56.11 52.51,56.11L53.99,55.86C54.18,55.83 54.33,55.69 54.37,55.5C54.51,54.98 54.71,54.48 54.98,54.01C55.08,53.85 55.07,53.64 54.96,53.49L54.07,52.25C54.05,52.21 54.05,52.16 54.08,52.13L55.14,51.07C55.17,51.05 55.19,51.04 55.21,51.04C55.23,51.04 55.25,51.05 55.26,51.06L56.49,51.93C56.64,52.04 56.85,52.05 57.01,51.95C57.47,51.68 57.98,51.46 58.5,51.33C58.68,51.28 58.82,51.13 58.85,50.95L59.1,49.44C59.11,49.4 59.15,49.37 59.2,49.37H60.69C60.74,49.37 60.78,49.4 60.78,49.44L61.03,50.92C61.07,51.11 61.2,51.27 61.39,51.31C61.92,51.45 62.44,51.66 62.91,51.94C63.08,52.03 63.28,52.03 63.43,51.92L64.66,51.03C64.68,51.02 64.69,51.02 64.71,51.02C64.73,51.02 64.75,51.02 64.78,51.05L65.84,52.1C65.87,52.14 65.87,52.19 65.85,52.22L64.97,53.46C64.86,53.61 64.85,53.82 64.95,53.98C65.23,54.44 65.43,54.94 65.57,55.47C65.61,55.65 65.77,55.79 65.95,55.82L67.44,56.07C67.49,56.08 67.52,56.12 67.52,56.16V57.66H67.52Z"/></clipPath></defs><path fill="url(#gradient_0)" d="M29,10L71,10A15,15 0,0 1,86 25L86,69A15,15 0,0 1,71 84L29,84A15,15 0,0 1,14 69L14,25A15,15 0,0 1,29 10z" id="path_0"/><path fill="#00000000" d="M29,11L71,11A14,14 0,0 1,85 25L85,69A14,14 0,0 1,71 83L29,83A14,14 0,0 1,15 69L15,25A14,14 0,0 1,29 11z" stroke="#F7F7F7" stroke-width="2" id="path_1"/><path fill="#ffffff" d="M44.42,48.87C46.71,48.87 48.56,50.73 48.56,53.02V61.3C48.56,63.58 46.71,65.44 44.42,65.44H36.14C33.85,65.44 32,63.58 32,61.3V53.02C32,50.73 33.85,48.87 36.14,48.87H44.42ZM44.42,52.19H36.14C35.68,52.19 35.31,52.56 35.31,53.02V61.3C35.31,61.75 35.68,62.12 36.14,62.12H44.42C44.88,62.12 45.25,61.75 45.25,61.3V53.02C45.25,52.56 44.88,52.19 44.42,52.19ZM43.18,54.26V60.05H37.38V54.26H43.18ZM44.42,29C46.71,29 48.56,30.85 48.56,33.14V41.42C48.56,43.71 46.71,45.56 44.42,45.56H36.14C33.85,45.56 32,43.71 32,41.42V33.14C32,30.85 33.85,29 36.14,29H44.42ZM64.3,29C66.58,29 68.44,30.85 68.44,33.14V41.42C68.44,43.71 66.58,45.56 64.3,45.56H56.02C53.73,45.56 51.87,43.71 51.87,41.42V33.14C51.87,30.85 53.73,29 56.02,29H64.3ZM44.42,32.31H36.14C35.68,32.31 35.31,32.68 35.31,33.14V41.42C35.31,41.88 35.68,42.25 36.14,42.25H44.42C44.88,42.25 45.25,41.88 45.25,41.42V33.14C45.25,32.68 44.88,32.31 44.42,32.31ZM64.3,32.31H56.02C55.56,32.31 55.19,32.68 55.19,33.14V41.42C55.19,41.88 55.56,42.25 56.02,42.25H64.3C64.75,42.25 65.12,41.88 65.12,41.42V33.14C65.12,32.68 64.75,32.31 64.3,32.31ZM63.05,34.38V40.18H57.26V34.38H63.05ZM43.17,34.39V40.17H37.39V34.39H43.17Z" id="path_2"/><path fill="#ffffff" d="M67.6,55.13L66.41,54.92C66.28,54.52 66.12,54.13 65.93,53.77L66.63,52.78C66.93,52.36 66.88,51.79 66.52,51.43L65.46,50.37C65.26,50.17 65,50.06 64.72,50.06C64.5,50.06 64.29,50.13 64.11,50.26L63.12,50.96C62.74,50.76 62.34,50.59 61.92,50.47L61.72,49.29C61.64,48.78 61.2,48.41 60.69,48.41H59.19C58.68,48.41 58.24,48.78 58.15,49.29L57.95,50.49C57.55,50.62 57.16,50.78 56.79,50.98L55.82,50.28C55.64,50.15 55.43,50.08 55.21,50.08C54.93,50.08 54.66,50.19 54.46,50.39L53.4,51.45C53.04,51.81 52.99,52.38 53.29,52.8L54,53.8C53.8,54.17 53.65,54.56 53.53,54.96L52.35,55.16C51.84,55.25 51.47,55.68 51.47,56.2V57.69C51.47,58.21 51.84,58.64 52.35,58.73L53.55,58.94C53.68,59.33 53.84,59.72 54.04,60.09L53.34,61.06C53.04,61.48 53.09,62.05 53.45,62.42L54.51,63.47C54.71,63.67 54.97,63.78 55.26,63.78C55.48,63.78 55.69,63.72 55.86,63.59L56.86,62.88C57.22,63.07 57.6,63.22 57.98,63.34L58.18,64.53C58.27,65.04 58.7,65.41 59.22,65.41H60.72C61.23,65.41 61.67,65.04 61.75,64.53L61.96,63.34C62.36,63.22 62.74,63.06 63.11,62.86L64.1,63.56C64.28,63.69 64.49,63.76 64.71,63.76C64.99,63.76 65.25,63.65 65.45,63.45L66.51,62.39C66.87,62.03 66.92,61.46 66.62,61.04L65.92,60.05C66.12,59.68 66.28,59.29 66.4,58.89L67.59,58.69C68.1,58.61 68.47,58.17 68.47,57.66V56.16C68.48,55.65 68.11,55.21 67.6,55.13ZM67.52,57.66C67.52,57.7 67.49,57.74 67.44,57.75L65.95,58C65.76,58.03 65.61,58.17 65.56,58.35C65.43,58.87 65.22,59.37 64.95,59.84C64.85,60 64.86,60.2 64.97,60.36L65.85,61.6C65.87,61.63 65.87,61.68 65.83,61.72L64.78,62.78C64.75,62.8 64.73,62.8 64.71,62.8C64.69,62.8 64.67,62.8 64.66,62.79L63.42,61.91C63.27,61.8 63.06,61.79 62.9,61.89C62.44,62.16 61.94,62.37 61.41,62.51C61.23,62.55 61.09,62.7 61.06,62.89L60.81,64.38C60.8,64.43 60.76,64.46 60.72,64.46H59.22C59.18,64.46 59.14,64.43 59.13,64.38L58.88,62.89C58.85,62.7 58.71,62.55 58.53,62.51C58.02,62.37 57.53,62.17 57.07,61.91C57,61.87 56.91,61.84 56.83,61.84C56.74,61.84 56.64,61.87 56.56,61.93L55.31,62.82C55.29,62.83 55.28,62.84 55.26,62.84C55.24,62.84 55.22,62.83 55.19,62.81L54.13,61.75C54.1,61.72 54.1,61.67 54.12,61.63L55,60.4C55.11,60.25 55.11,60.04 55.02,59.88C54.74,59.42 54.53,58.91 54.39,58.39C54.34,58.21 54.19,58.07 54.01,58.04L52.51,57.79C52.46,57.78 52.43,57.74 52.43,57.69V56.2C52.43,56.15 52.46,56.11 52.51,56.11L53.99,55.86C54.18,55.83 54.33,55.69 54.37,55.5C54.51,54.98 54.71,54.48 54.98,54.01C55.08,53.85 55.07,53.64 54.96,53.49L54.07,52.25C54.05,52.21 54.05,52.16 54.08,52.13L55.14,51.07C55.17,51.05 55.19,51.04 55.21,51.04C55.23,51.04 55.25,51.05 55.26,51.06L56.49,51.93C56.64,52.04 56.85,52.05 57.01,51.95C57.47,51.68 57.98,51.46 58.5,51.33C58.68,51.28 58.82,51.13 58.85,50.95L59.1,49.44C59.11,49.4 59.15,49.37 59.2,49.37H60.69C60.74,49.37 60.78,49.4 60.78,49.44L61.03,50.92C61.07,51.11 61.2,51.27 61.39,51.31C61.92,51.45 62.44,51.66 62.91,51.94C63.08,52.03 63.28,52.03 63.43,51.92L64.66,51.03C64.68,51.02 64.69,51.02 64.71,51.02C64.73,51.02 64.75,51.02 64.78,51.05L65.84,52.1C65.87,52.14 65.87,52.19 65.85,52.22L64.97,53.46C64.86,53.61 64.85,53.82 64.95,53.98C65.23,54.44 65.43,54.94 65.57,55.47C65.61,55.65 65.77,55.79 65.95,55.82L67.44,56.07C67.49,56.08 67.52,56.12 67.52,56.16V57.66H67.52Z" id="path_3"/><g id="g_0"><path fill="#00000000" d="M67.6,55.13L66.41,54.92C66.28,54.52 66.12,54.13 65.93,53.77L66.63,52.78C66.93,52.36 66.88,51.79 66.52,51.43L65.46,50.37C65.26,50.17 65,50.06 64.72,50.06C64.5,50.06 64.29,50.13 64.11,50.26L63.12,50.96C62.74,50.76 62.34,50.59 61.92,50.47L61.72,49.29C61.64,48.78 61.2,48.41 60.69,48.41H59.19C58.68,48.41 58.24,48.78 58.15,49.29L57.95,50.49C57.55,50.62 57.16,50.78 56.79,50.98L55.82,50.28C55.64,50.15 55.43,50.08 55.21,50.08C54.93,50.08 54.66,50.19 54.46,50.39L53.4,51.45C53.04,51.81 52.99,52.38 53.29,52.8L54,53.8C53.8,54.17 53.65,54.56 53.53,54.96L52.35,55.16C51.84,55.25 51.47,55.68 51.47,56.2V57.69C51.47,58.21 51.84,58.64 52.35,58.73L53.55,58.94C53.68,59.33 53.84,59.72 54.04,60.09L53.34,61.06C53.04,61.48 53.09,62.05 53.45,62.42L54.51,63.47C54.71,63.67 54.97,63.78 55.26,63.78C55.48,63.78 55.69,63.72 55.86,63.59L56.86,62.88C57.22,63.07 57.6,63.22 57.98,63.34L58.18,64.53C58.27,65.04 58.7,65.41 59.22,65.41H60.72C61.23,65.41 61.67,65.04 61.75,64.53L61.96,63.34C62.36,63.22 62.74,63.06 63.11,62.86L64.1,63.56C64.28,63.69 64.49,63.76 64.71,63.76C64.99,63.76 65.25,63.65 65.45,63.45L66.51,62.39C66.87,62.03 66.92,61.46 66.62,61.04L65.92,60.05C66.12,59.68 66.28,59.29 66.4,58.89L67.59,58.69C68.1,58.61 68.47,58.17 68.47,57.66V56.16C68.48,55.65 68.11,55.21 67.6,55.13ZM67.52,57.66C67.52,57.7 67.49,57.74 67.44,57.75L65.95,58C65.76,58.03 65.61,58.17 65.56,58.35C65.43,58.87 65.22,59.37 64.95,59.84C64.85,60 64.86,60.2 64.97,60.36L65.85,61.6C65.87,61.63 65.87,61.68 65.83,61.72L64.78,62.78C64.75,62.8 64.73,62.8 64.71,62.8C64.69,62.8 64.67,62.8 64.66,62.79L63.42,61.91C63.27,61.8 63.06,61.79 62.9,61.89C62.44,62.16 61.94,62.37 61.41,62.51C61.23,62.55 61.09,62.7 61.06,62.89L60.81,64.38C60.8,64.43 60.76,64.46 60.72,64.46H59.22C59.18,64.46 59.14,64.43 59.13,64.38L58.88,62.89C58.85,62.7 58.71,62.55 58.53,62.51C58.02,62.37 57.53,62.17 57.07,61.91C57,61.87 56.91,61.84 56.83,61.84C56.74,61.84 56.64,61.87 56.56,61.93L55.31,62.82C55.29,62.83 55.28,62.84 55.26,62.84C55.24,62.84 55.22,62.83 55.19,62.81L54.13,61.75C54.1,61.72 54.1,61.67 54.12,61.63L55,60.4C55.11,60.25 55.11,60.04 55.02,59.88C54.74,59.42 54.53,58.91 54.39,58.39C54.34,58.21 54.19,58.07 54.01,58.04L52.51,57.79C52.46,57.78 52.43,57.74 52.43,57.69V56.2C52.43,56.15 52.46,56.11 52.51,56.11L53.99,55.86C54.18,55.83 54.33,55.69 54.37,55.5C54.51,54.98 54.71,54.48 54.98,54.01C55.08,53.85 55.07,53.64 54.96,53.49L54.07,52.25C54.05,52.21 54.05,52.16 54.08,52.13L55.14,51.07C55.17,51.05 55.19,51.04 55.21,51.04C55.23,51.04 55.25,51.05 55.26,51.06L56.49,51.93C56.64,52.04 56.85,52.05 57.01,51.95C57.47,51.68 57.98,51.46 58.5,51.33C58.68,51.28 58.82,51.13 58.85,50.95L59.1,49.44C59.11,49.4 59.15,49.37 59.2,49.37H60.69C60.74,49.37 60.78,49.4 60.78,49.44L61.03,50.92C61.07,51.11 61.2,51.27 61.39,51.31C61.92,51.45 62.44,51.66 62.91,51.94C63.08,52.03 63.28,52.03 63.43,51.92L64.66,51.03C64.68,51.02 64.69,51.02 64.71,51.02C64.73,51.02 64.75,51.02 64.78,51.05L65.84,52.1C65.87,52.14 65.87,52.19 65.85,52.22L64.97,53.46C64.86,53.61 64.85,53.82 64.95,53.98C65.23,54.44 65.43,54.94 65.57,55.47C65.61,55.65 65.77,55.79 65.95,55.82L67.44,56.07C67.49,56.08 67.52,56.12 67.52,56.16V57.66H67.52Z" stroke="#ffffff" stroke-width="0.8" clip-path="url(#clip_path_1)"/></g><path fill="#ffffff" d="M59.97,53.04C57.84,53.04 56.1,54.77 56.1,56.91C56.1,59.04 57.84,60.78 59.97,60.78C62.11,60.78 63.84,59.04 63.84,56.91C63.84,54.77 62.11,53.04 59.97,53.04ZM59.97,59.42C58.59,59.42 57.46,58.29 57.46,56.91C57.46,55.52 58.59,54.4 59.97,54.4C61.36,54.4 62.48,55.52 62.48,56.91C62.48,58.29 61.36,59.42 59.97,59.42Z" stroke="#ffffff" stroke-width="0.4" id="path_4"/></svg>