<svg id="vector" xmlns="http://www.w3.org/2000/svg" width="100" height="102" viewBox="0 0 100 102"><defs><linearGradient gradientUnits="userSpaceOnUse" x2="85.02" y2="66.09" x1="19.2" y1="30.51" id="gradient_0"><stop stop-color="#00BB8E" offset="0.01"/><stop stop-color="#00BB8ED0" offset="1"/></linearGradient></defs><path fill="url(#gradient_0)" d="M29,10L71,10A15,15 0,0 1,86 25L86,69A15,15 0,0 1,71 84L29,84A15,15 0,0 1,14 69L14,25A15,15 0,0 1,29 10z" id="path_0"/><path fill="#00000000" d="M29,11L71,11A14,14 0,0 1,85 25L85,69A14,14 0,0 1,71 83L29,83A14,14 0,0 1,15 69L15,25A14,14 0,0 1,29 11z" stroke="#F7F7F7" stroke-width="2" id="path_1"/><path fill="#ffffff" d="M44.42,48.87C46.71,48.87 48.56,50.73 48.56,53.02V61.3C48.56,63.58 46.71,65.44 44.42,65.44H36.14C33.85,65.44 32,63.58 32,61.3V53.02C32,50.73 33.85,48.87 36.14,48.87H44.42ZM44.42,52.19H36.14C35.68,52.19 35.31,52.56 35.31,53.02V61.3C35.31,61.75 35.68,62.12 36.14,62.12H44.42C44.88,62.12 45.25,61.75 45.25,61.3V53.02C45.25,52.56 44.88,52.19 44.42,52.19ZM43.18,54.26V60.05H37.38V54.26H43.18ZM44.42,29C46.71,29 48.56,30.85 48.56,33.14V41.42C48.56,43.71 46.71,45.56 44.42,45.56H36.14C33.85,45.56 32,43.71 32,41.42V33.14C32,30.85 33.85,29 36.14,29H44.42ZM64.3,29C66.58,29 68.44,30.85 68.44,33.14V41.42C68.44,43.71 66.58,45.56 64.3,45.56H56.02C53.73,45.56 51.87,43.71 51.87,41.42V33.14C51.87,30.85 53.73,29 56.02,29H64.3ZM44.42,32.31H36.14C35.68,32.31 35.31,32.68 35.31,33.14V41.42C35.31,41.88 35.68,42.25 36.14,42.25H44.42C44.88,42.25 45.25,41.88 45.25,41.42V33.14C45.25,32.68 44.88,32.31 44.42,32.31ZM64.3,32.31H56.02C55.56,32.31 55.19,32.68 55.19,33.14V41.42C55.19,41.88 55.56,42.25 56.02,42.25H64.3C64.75,42.25 65.12,41.88 65.12,41.42V33.14C65.12,32.68 64.75,32.31 64.3,32.31ZM63.05,34.38V40.18H57.26V34.38H63.05ZM43.17,34.39V40.17H37.39V34.39H43.17Z" id="path_2"/><path fill="#00000000" d="M53.47,50.11L60.24,56.88L53.47,63.65" stroke="#ffffff" stroke-linecap="round" stroke-width="3" id="path_3"/><path fill="#00000000" d="M59.7,50.11L66.47,56.88L59.7,63.65" stroke="#ffffff" stroke-linecap="round" stroke-width="3" id="path_4"/></svg>